<svg width="24" height="24" viewBox="0 0 24 24" fill="none" xmlns="http://www.w3.org/2000/svg">
<path d="M20.8003 7.79614C21.841 9.97282 22.0386 12.4579 21.3549 14.7717C20.6712 17.0855 19.1546 19.064 17.0979 20.3253C15.0412 21.5867 12.5901 22.0416 10.2178 21.602C7.84545 21.1625 5.72 19.8598 4.25166 17.9454C2.78332 16.0309 2.07617 13.6405 2.2667 11.2353C2.45722 8.83012 3.53191 6.58078 5.28335 4.92139C7.03479 3.26199 9.33883 2.31018 11.7508 2.24966C14.1627 2.18913 16.5116 3.02418 18.344 4.59363L20.4694 2.46738C20.6101 2.32665 20.801 2.24759 21 2.24759C21.199 2.24759 21.3899 2.32665 21.5306 2.46738C21.6713 2.60812 21.7504 2.79899 21.7504 2.99801C21.7504 3.19703 21.6713 3.3879 21.5306 3.52863L15.7125 9.3477L12.1772 12.883L9.93186 15.1283C10.5123 15.5123 11.1882 15.7271 11.8838 15.7488C12.5795 15.7704 13.2674 15.5981 13.8707 15.251C14.4739 14.904 14.9687 14.3959 15.2996 13.7836C15.6305 13.1713 15.7845 12.4791 15.7444 11.7843C15.7332 11.5853 15.8015 11.3901 15.9342 11.2416C16.0669 11.093 16.2533 11.0033 16.4522 10.9921C16.6511 10.9809 16.8463 11.0492 16.9949 11.1819C17.1434 11.3147 17.2332 11.501 17.2444 11.6999C17.3049 12.7619 17.0413 13.8172 16.4887 14.7261C15.936 15.635 15.1203 16.3546 14.1496 16.7895C13.1788 17.2245 12.0989 17.3543 11.0527 17.1618C10.0065 16.9692 9.04354 16.4635 8.29124 15.7114C7.35559 14.7723 6.80988 13.514 6.76367 12.1891C6.71746 10.8642 7.17418 9.57089 8.04212 8.56884C8.91006 7.56678 10.125 6.93018 11.4429 6.78685C12.7608 6.64353 14.0841 7.00409 15.1472 7.79614L17.2781 5.66145C15.7151 4.36376 13.7278 3.68929 11.6978 3.76758C9.6678 3.84587 7.73832 4.67141 6.27991 6.08563C4.82151 7.49986 3.93702 9.40304 3.79634 11.4297C3.65565 13.4563 4.26869 15.4634 5.5177 17.0656C6.76671 18.6678 8.56362 19.752 10.5633 20.11C12.563 20.468 14.6245 20.0746 16.3518 19.0053C18.0791 17.9361 19.3505 16.2663 19.9217 14.3168C20.4929 12.3672 20.3237 10.2754 19.4465 8.44301C19.3608 8.26349 19.3498 8.05725 19.4161 7.86965C19.4824 7.68206 19.6205 7.52848 19.8 7.4427C19.9795 7.35692 20.1857 7.34596 20.3733 7.41224C20.5609 7.47853 20.7145 7.61662 20.8003 7.79614Z" fill="#00BC72"/>
</svg>
