<svg width="168" height="56" viewBox="0 0 168 56" fill="none" xmlns="http://www.w3.org/2000/svg">
<rect x="0.7" y="0.7" width="166.6" height="54.6" rx="7.7" fill="white"/>
<rect x="0.7" y="0.7" width="166.6" height="54.6" rx="7.7" stroke="black" stroke-width="1.4"/>
<path d="M34.5865 29.0684C34.6035 27.7806 34.9539 26.5178 35.6051 25.3977C36.2563 24.2775 37.1871 23.3364 38.3109 22.6619C37.597 21.6664 36.6551 20.8472 35.5601 20.2692C34.4652 19.6913 33.2472 19.3706 32.0031 19.3326C29.3492 19.0606 26.7763 20.883 25.4239 20.883C24.0453 20.883 21.9631 19.3596 19.7208 19.4046C18.2705 19.4504 16.857 19.8621 15.6182 20.5998C14.3793 21.3374 13.3572 22.3758 12.6516 23.6137C9.59512 28.7802 11.875 36.3734 14.8029 40.5496C16.2678 42.5946 17.9799 44.8789 20.2201 44.7979C22.4123 44.7092 23.231 43.4332 25.8771 43.4332C28.4987 43.4332 29.2668 44.7979 31.5525 44.7464C33.9048 44.7092 35.3869 42.6924 36.8004 40.628C37.853 39.1709 38.6629 37.5604 39.2002 35.8563C37.8336 35.292 36.6673 34.3474 35.8469 33.1403C35.0264 31.9332 34.5881 30.5171 34.5865 29.0684Z" fill="black"/>
<path d="M30.2697 16.5859C31.5522 15.0827 32.1841 13.1506 32.0311 11.2C30.0716 11.4009 28.2616 12.3152 26.9617 13.7607C26.3261 14.4669 25.8394 15.2884 25.5292 16.1784C25.2191 17.0683 25.0916 18.0092 25.1541 18.9473C26.1342 18.9571 27.1038 18.7497 27.9899 18.3407C28.876 17.9317 29.6555 17.3317 30.2697 16.5859Z" fill="black"/>
<path d="M51.5073 17.1021H54.4051C56.9091 17.1021 58.1272 18.5909 58.1272 21.2918C58.1272 23.9927 56.8968 25.5 54.4051 25.5H51.5073V17.1021ZM52.9039 18.2771V24.3249H54.2513C55.9124 24.3249 56.6937 23.3221 56.6937 21.3103C56.6937 19.2861 55.9062 18.2771 54.2513 18.2771H52.9039ZM62.5446 18.8862C64.2427 18.8862 65.4301 19.9875 65.4301 21.8147V22.6576C65.4301 24.5464 64.2427 25.6107 62.5446 25.6107C60.822 25.6107 59.6469 24.5587 59.6469 22.6638V21.8209C59.6469 20.0429 60.8404 18.8862 62.5446 18.8862ZM62.5508 19.9875C61.5787 19.9875 61.025 20.7996 61.025 21.8886V22.6146C61.025 23.7035 61.5418 24.5095 62.5508 24.5095C63.5475 24.5095 64.0581 23.7097 64.0581 22.6146V21.8886C64.0581 20.7996 63.5229 19.9875 62.5508 19.9875ZM75.4584 18.997L73.748 25.5H72.3576L70.9979 20.7012H70.961L69.626 25.5H68.2294L66.4452 18.997H67.9156L68.9615 23.9558H69.023L70.3335 18.997H71.6193L72.9667 23.9558H73.0282L74.0926 18.997H75.4584ZM76.8119 25.5V18.997H78.1531V20.1659H78.2208C78.3869 19.6553 78.8606 18.8985 80.1772 18.8985C81.4877 18.8985 82.3675 19.6245 82.3675 21.1072V25.5H81.0017V21.5071C81.0017 20.5166 80.4849 20.0613 79.7158 20.0613C78.7068 20.0613 78.1777 20.8365 78.1777 21.8886V25.5H76.8119ZM84.4347 25.5V16.6591H85.8005V25.5H84.4347ZM90.4886 18.8862C92.1866 18.8862 93.374 19.9875 93.374 21.8147V22.6576C93.374 24.5464 92.1866 25.6107 90.4886 25.6107C88.7659 25.6107 87.5908 24.5587 87.5908 22.6638V21.8209C87.5908 20.0429 88.7844 18.8862 90.4886 18.8862ZM90.4947 19.9875C89.5227 19.9875 88.9689 20.7996 88.9689 21.8886V22.6146C88.9689 23.7035 89.4857 24.5095 90.4947 24.5095C91.4914 24.5095 92.002 23.7097 92.002 22.6146V21.8886C92.002 20.7996 91.4668 19.9875 90.4947 19.9875ZM96.9116 25.5984C95.6504 25.5984 94.7829 24.8232 94.7829 23.6112C94.7829 22.4607 95.5827 21.6855 97.0839 21.6855H98.7266V21.0765C98.7266 20.332 98.2528 19.9813 97.5022 19.9813C96.764 19.9813 96.4317 20.289 96.3271 20.7196H95.029C95.109 19.6307 95.9272 18.8985 97.5453 18.8985C98.9357 18.8985 100.086 19.4769 100.086 21.0949V25.5H98.7881V24.6571H98.7266C98.4374 25.1555 97.8714 25.5984 96.9116 25.5984ZM97.3361 24.5402C98.1113 24.5402 98.7266 24.0111 98.7266 23.3036V22.6022H97.2992C96.5056 22.6022 96.1549 23.0021 96.1549 23.5436C96.1549 24.2203 96.7209 24.5402 97.3361 24.5402ZM104.294 18.9108C105.211 18.9108 105.912 19.3169 106.165 19.9752H106.232V16.6591H107.598V25.5H106.269V24.4603H106.202C106.005 25.1186 105.223 25.5861 104.276 25.5861C102.781 25.5861 101.809 24.5218 101.809 22.8053V21.6917C101.809 19.9752 102.799 18.9108 104.294 18.9108ZM104.676 20.0306C103.765 20.0306 103.199 20.7073 103.199 21.8886V22.6022C103.199 23.7896 103.771 24.4664 104.707 24.4664C105.629 24.4664 106.232 23.7958 106.232 22.6884V21.704C106.232 20.7012 105.574 20.0306 104.676 20.0306ZM115.098 18.8862C116.796 18.8862 117.983 19.9875 117.983 21.8147V22.6576C117.983 24.5464 116.796 25.6107 115.098 25.6107C113.375 25.6107 112.2 24.5587 112.2 22.6638V21.8209C112.2 20.0429 113.394 18.8862 115.098 18.8862ZM115.104 19.9875C114.132 19.9875 113.578 20.7996 113.578 21.8886V22.6146C113.578 23.7035 114.095 24.5095 115.104 24.5095C116.101 24.5095 116.611 23.7097 116.611 22.6146V21.8886C116.611 20.7996 116.076 19.9875 115.104 19.9875ZM119.743 25.5V18.997H121.084V20.1659H121.152C121.318 19.6553 121.792 18.8985 123.108 18.8985C124.419 18.8985 125.299 19.6245 125.299 21.1072V25.5H123.933V21.5071C123.933 20.5166 123.416 20.0613 122.647 20.0613C121.638 20.0613 121.109 20.8365 121.109 21.8886V25.5H119.743ZM130.583 19.04V17.4158H131.918V19.04H133.377V20.1105H131.918V23.562C131.918 24.2695 132.183 24.4664 132.915 24.4664C133.1 24.4664 133.346 24.4541 133.45 24.4418V25.4877C133.34 25.5062 132.884 25.5431 132.577 25.5431C130.996 25.5431 130.565 24.9771 130.565 23.6728V20.1105H129.574V19.04H130.583ZM135.099 25.5V16.6591H136.459V20.1659H136.527C136.668 19.7045 137.197 18.8985 138.501 18.8985C139.769 18.8985 140.673 19.6307 140.673 21.1134V25.5H139.314V21.5133C139.314 20.5228 138.766 20.0613 137.991 20.0613C137.013 20.0613 136.459 20.8304 136.459 21.8886V25.5H135.099ZM145.257 25.6107C143.485 25.6107 142.384 24.5218 142.384 22.6884V21.8086C142.384 19.9629 143.589 18.8862 145.177 18.8862C146.807 18.8862 147.958 20.0183 147.958 21.8086V22.5715H143.737V22.8914C143.737 23.8266 144.291 24.5156 145.251 24.5156C145.964 24.5156 146.456 24.1772 146.549 23.7712H147.884C147.804 24.5218 147.01 25.6107 145.257 25.6107ZM143.737 21.6794H146.623V21.5933C146.623 20.615 146.05 19.9629 145.183 19.9629C144.315 19.9629 143.737 20.615 143.737 21.5933V21.6794Z" fill="black"/>
<path d="M53.4884 45.5H50.646L56.4292 28.7041H59.5546L65.3255 45.5H62.3724L60.8835 40.8488H54.9896L53.4884 45.5ZM58.0042 31.608H57.8935L55.6171 38.7078H60.256L58.0042 31.608ZM73.17 45.6846C71.4843 45.6846 70.2046 44.8848 69.5155 43.6912H69.4171V49.8189H66.6855V32.4939H69.3433V34.4012H69.4417C70.1554 33.1584 71.4843 32.3217 73.2315 32.3217C76.1478 32.3217 78.2273 34.5242 78.2273 38.4125V39.5691C78.2273 43.4328 76.1724 45.6846 73.17 45.6846ZM72.5425 43.4328C74.2774 43.4328 75.4587 42.0424 75.4587 39.4215V38.5109C75.4587 35.9885 74.3513 34.5488 72.4933 34.5488C70.586 34.5488 69.3925 36.0992 69.3925 38.4986V39.4215C69.3925 41.8824 70.5983 43.4328 72.5425 43.4328ZM87.0562 45.6846C85.3704 45.6846 84.0907 44.8848 83.4017 43.6912H83.3032V49.8189H80.5716V32.4939H83.2294V34.4012H83.3278C84.0415 33.1584 85.3704 32.3217 87.1177 32.3217C90.0339 32.3217 92.1134 34.5242 92.1134 38.4125V39.5691C92.1134 43.4328 90.0585 45.6846 87.0562 45.6846ZM86.4286 43.4328C88.1636 43.4328 89.3448 42.0424 89.3448 39.4215V38.5109C89.3448 35.9885 88.2374 34.5488 86.3794 34.5488C84.4722 34.5488 83.2786 36.0992 83.2786 38.4986V39.4215C83.2786 41.8824 84.4845 43.4328 86.4286 43.4328ZM97.7742 40.8365H100.506C100.629 42.2885 101.909 43.5313 104.283 43.5313C106.461 43.5313 107.753 42.51 107.753 40.9227C107.753 39.643 106.892 38.9539 105.095 38.5232L102.339 37.8342C100.174 37.3297 98.2294 36.0377 98.2294 33.3061C98.2294 30.0945 101.035 28.335 104.296 28.335C107.556 28.335 110.276 30.0945 110.337 33.2322H107.655C107.532 31.8049 106.437 30.6236 104.259 30.6236C102.339 30.6236 101.035 31.5342 101.035 33.0969C101.035 34.192 101.798 34.9795 103.36 35.3363L106.104 36.0131C108.627 36.6283 110.546 37.8219 110.546 40.6766C110.546 43.9742 107.876 45.8322 104.074 45.8322C99.3984 45.8322 97.8357 43.1006 97.7742 40.8365ZM113.875 32.4939V29.3316H116.558V32.4939H119.092V34.6842H116.558V41.624C116.558 43.0391 117.087 43.4328 118.551 43.4328C118.785 43.4328 119.006 43.4328 119.166 43.4082V45.5C118.945 45.5369 118.428 45.5861 117.874 45.5861C114.712 45.5861 113.838 44.4541 113.838 41.8455V34.6842H112.042V32.4939H113.875ZM126.469 32.2725C130.21 32.2725 132.24 34.9057 132.24 38.4494V39.4953C132.24 43.1621 130.222 45.7215 126.469 45.7215C122.716 45.7215 120.674 43.1621 120.674 39.4953V38.4494C120.674 34.918 122.729 32.2725 126.469 32.2725ZM126.469 34.4627C124.439 34.4627 123.43 36.1238 123.43 38.4863V39.483C123.43 41.8086 124.427 43.5189 126.469 43.5189C128.512 43.5189 129.496 41.8209 129.496 39.483V38.4863C129.496 36.1115 128.5 34.4627 126.469 34.4627ZM134.548 45.5V32.4939H137.279V34.2043H137.378C137.71 33.3922 138.682 32.3094 140.491 32.3094C140.848 32.3094 141.155 32.334 141.414 32.3832V34.7949C141.18 34.7334 140.7 34.6965 140.245 34.6965C138.054 34.6965 137.316 36.05 137.316 37.7973V45.5H134.548ZM148.04 45.7215C144.558 45.7215 142.343 43.4205 142.343 39.5691V38.2525C142.343 34.6227 144.509 32.2725 147.929 32.2725C151.399 32.2725 153.491 34.7088 153.491 38.3756V39.6184H145.038V39.926C145.038 42.1162 146.219 43.5682 148.077 43.5682C149.467 43.5682 150.415 42.8791 150.747 41.7594H153.343C152.95 43.8635 151.252 45.7215 148.04 45.7215ZM145.038 37.7111H150.821V37.6865C150.821 35.8408 149.677 34.3889 147.942 34.3889C146.182 34.3889 145.038 35.8408 145.038 37.6865V37.7111Z" fill="black"/>
</svg>
