<svg width="168" height="56" viewBox="0 0 168 56" fill="none" xmlns="http://www.w3.org/2000/svg">
<rect x="0.7" y="0.7" width="166.6" height="54.6" rx="7.7" fill="white"/>
<rect x="0.7" y="0.7" width="166.6" height="54.6" rx="7.7" stroke="black" stroke-width="1.4"/>
<path d="M24.927 27.2464L11.3257 42.0083C11.327 42.011 11.327 42.0149 11.3282 42.0175C11.746 43.6204 13.1767 44.8 14.8758 44.8C15.5554 44.8 16.1929 44.6119 16.7396 44.2827L16.7831 44.2566L32.0924 35.2231L24.927 27.2464Z" fill="#EA4335"/>
<path d="M38.6865 24.7326L38.6738 24.7235L32.0641 20.8057L24.6177 27.5818L32.0909 35.2214L38.6648 31.3428C39.8171 30.7053 40.6002 29.463 40.6002 28.0312C40.6002 26.6073 39.8286 25.3714 38.6865 24.7326Z" fill="#FBBC04"/>
<path d="M11.3254 13.9906C11.2436 14.299 11.2002 14.6229 11.2002 14.9574V41.0429C11.2002 41.3773 11.2436 41.7013 11.3267 42.0083L25.3942 27.6239L11.3254 13.9906Z" fill="#4285F4"/>
<path d="M25.0274 28L32.0663 20.8032L16.7749 11.737C16.2192 11.3961 15.5703 11.2001 14.8766 11.2001C13.1775 11.2001 11.7442 12.3824 11.3265 13.9866C11.3265 13.9879 11.3252 13.9892 11.3252 13.9905L25.0274 28Z" fill="#34A853"/>
<path d="M61.0539 15.394C61.0539 16.794 60.6386 17.9093 59.8079 18.74C58.8746 19.7293 57.6472 20.224 56.1259 20.224C54.6699 20.224 53.4379 19.72 52.4299 18.712C51.4219 17.704 50.9179 16.4627 50.9179 14.988C50.9179 13.5133 51.4219 12.272 52.4299 11.264C53.4379 10.256 54.6699 9.752 56.1259 9.752C56.8632 9.752 57.5586 9.88267 58.2119 10.144C58.8652 10.4053 59.4019 10.774 59.8219 11.25L58.8979 12.174C58.5899 11.8007 58.1886 11.5113 57.6939 11.306C57.2086 11.0913 56.6859 10.984 56.1259 10.984C55.0339 10.984 54.1099 11.362 53.3539 12.118C52.6072 12.8833 52.2339 13.84 52.2339 14.988C52.2339 16.136 52.6072 17.0927 53.3539 17.858C54.1099 18.614 55.0339 18.992 56.1259 18.992C57.1246 18.992 57.9552 18.712 58.6179 18.152C59.2806 17.592 59.6632 16.822 59.7659 15.842H56.1259V14.638H60.9839C61.0306 14.8993 61.0539 15.1513 61.0539 15.394ZM68.4708 9.976V11.208H63.9068V14.386H68.0228V15.59H63.9068V18.768H68.4708V20H62.6188V9.976H68.4708ZM73.6227 11.208V20H72.3347V11.208H69.5347V9.976H76.4227V11.208H73.6227ZM82.1314 20H80.8434V9.976H82.1314V20ZM87.568 11.208V20H86.28V11.208H83.48V9.976H90.368V11.208H87.568ZM104.329 14.988C104.329 16.472 103.835 17.7133 102.845 18.712C101.847 19.72 100.624 20.224 99.1773 20.224C97.7213 20.224 96.4987 19.72 95.5093 18.712C94.52 17.7133 94.0253 16.472 94.0253 14.988C94.0253 13.504 94.52 12.2627 95.5093 11.264C96.4987 10.256 97.7213 9.752 99.1773 9.752C100.633 9.752 101.856 10.2607 102.845 11.278C103.835 12.2767 104.329 13.5133 104.329 14.988ZM95.3413 14.988C95.3413 16.1453 95.7053 17.102 96.4333 17.858C97.1707 18.614 98.0853 18.992 99.1773 18.992C100.269 18.992 101.179 18.614 101.907 17.858C102.645 17.1113 103.013 16.1547 103.013 14.988C103.013 13.8213 102.645 12.8647 101.907 12.118C101.179 11.362 100.269 10.984 99.1773 10.984C98.0853 10.984 97.1707 11.362 96.4333 12.118C95.7053 12.874 95.3413 13.8307 95.3413 14.988ZM107.137 20H105.849V9.976H107.417L112.289 17.774H112.345L112.289 15.842V9.976H113.577V20H112.233L107.137 11.824H107.081L107.137 13.756V20Z" fill="black"/>
<path d="M130.925 39.1735H133.206V23.7574H130.925V39.1735ZM151.464 29.3104L148.85 35.9943H148.772L146.059 29.3104H143.603L147.671 38.6518L145.353 43.8485H147.73L154 29.3104H151.464ZM138.533 37.4223C137.785 37.4223 136.743 37.0462 136.743 36.1127C136.743 34.9239 138.04 34.4676 139.161 34.4676C140.163 34.4676 140.636 34.6859 141.244 34.9831C141.067 36.4111 139.849 37.4223 138.533 37.4223ZM138.807 28.9737C137.156 28.9737 135.446 29.7075 134.739 31.3341L136.763 32.1862C137.196 31.3341 138.001 31.0554 138.847 31.0554C140.026 31.0554 141.225 31.7694 141.244 33.0396V33.1974C140.831 32.9594 139.948 32.603 138.866 32.603C136.685 32.603 134.463 33.8128 134.463 36.0732C134.463 38.1364 136.252 39.4657 138.256 39.4657C139.79 39.4657 140.636 38.7714 141.166 37.9575H141.244V39.1476H143.445V33.2369C143.445 30.5004 141.421 28.9737 138.807 28.9737ZM124.715 31.1873H121.472V25.9031H124.715C126.42 25.9031 127.387 27.3274 127.387 28.5446C127.387 29.7396 126.42 31.1873 124.715 31.1873ZM124.656 23.7574H119.192V39.1735H121.472V33.3331H124.656C127.183 33.3331 129.668 31.4858 129.668 28.5446C129.668 25.6034 127.183 23.7574 124.656 23.7574ZM94.8615 37.4248C93.2863 37.4248 91.9677 36.0942 91.9677 34.2666C91.9677 32.4193 93.2863 31.0677 94.8615 31.0677C96.4172 31.0677 97.6368 32.4193 97.6368 34.2666C97.6368 36.0942 96.4172 37.4248 94.8615 37.4248ZM97.4804 30.1736H97.4009C96.8889 29.5583 95.9052 29.0021 94.6648 29.0021C92.0655 29.0021 89.6837 31.3057 89.6837 34.2666C89.6837 37.2065 92.0655 39.4916 94.6648 39.4916C95.9052 39.4916 96.8889 38.9355 97.4009 38.2991H97.4804V39.0551C97.4804 41.0615 96.4172 42.1344 94.7039 42.1344C93.3059 42.1344 92.4394 41.1207 92.085 40.2661L90.0968 41.1009C90.6675 42.492 92.184 44.2 94.7039 44.2C97.3814 44.2 99.6458 42.6104 99.6458 38.7369V29.319H97.4804V30.1736ZM101.221 39.1735H103.505V23.7561H101.221V39.1735ZM106.871 34.0878C106.812 32.0617 108.426 31.0282 109.587 31.0282C110.494 31.0282 111.261 31.4845 111.517 32.1406L106.871 34.0878ZM113.958 32.3391C113.526 31.1676 112.206 29.0021 109.509 29.0021C106.831 29.0021 104.607 31.1269 104.607 34.2469C104.607 37.1868 106.812 39.4916 109.764 39.4916C112.147 39.4916 113.526 38.0217 114.097 37.1671L112.325 35.9746C111.734 36.8489 110.927 37.4248 109.764 37.4248C108.603 37.4248 107.776 36.8884 107.245 35.8365L114.194 32.9348L113.958 32.3391ZM58.59 30.6114V32.8361H63.8656C63.708 34.0878 63.2949 35.0016 62.6656 35.6367C61.8969 36.4124 60.6956 37.267 58.59 37.267C55.3406 37.267 52.8012 34.6242 52.8012 31.3464C52.8012 28.0674 55.3406 25.4259 58.59 25.4259C60.3425 25.4259 61.6219 26.1214 62.5666 27.0154L64.1222 25.4456C62.8024 24.1742 61.0512 23.2 58.59 23.2C54.1406 23.2 50.3999 26.8564 50.3999 31.3464C50.3999 35.8365 54.1406 39.4916 58.59 39.4916C60.9914 39.4916 62.8024 38.6962 64.22 37.2065C65.6779 35.7366 66.1301 33.671 66.1301 32.0012C66.1301 31.4845 66.091 31.0085 66.0115 30.6114H58.59ZM72.1291 37.4248C70.5539 37.4248 69.1949 36.1139 69.1949 34.2469C69.1949 32.3589 70.5539 31.0677 72.1291 31.0677C73.7031 31.0677 75.062 32.3589 75.062 34.2469C75.062 36.1139 73.7031 37.4248 72.1291 37.4248ZM72.1291 29.0021C69.2536 29.0021 66.9109 31.2071 66.9109 34.2469C66.9109 37.267 69.2536 39.4916 72.1291 39.4916C75.0033 39.4916 77.346 37.267 77.346 34.2469C77.346 31.2071 75.0033 29.0021 72.1291 29.0021ZM83.51 37.4248C81.9348 37.4248 80.5758 36.1139 80.5758 34.2469C80.5758 32.3589 81.9348 31.0677 83.51 31.0677C85.0852 31.0677 86.4429 32.3589 86.4429 34.2469C86.4429 36.1139 85.0852 37.4248 83.51 37.4248ZM83.51 29.0021C80.6357 29.0021 78.2931 31.2071 78.2931 34.2469C78.2931 37.267 80.6357 39.4916 83.51 39.4916C86.3842 39.4916 88.7269 37.267 88.7269 34.2469C88.7269 31.2071 86.3842 29.0021 83.51 29.0021Z" fill="black"/>
</svg>
