<svg width="24" height="24" viewBox="0 0 24 24" fill="none" xmlns="http://www.w3.org/2000/svg">
<path d="M22.2807 7.28055L19.0604 10.4999L21.5307 12.9693C21.6004 13.039 21.6556 13.1217 21.6933 13.2128C21.7311 13.3038 21.7505 13.4014 21.7505 13.4999C21.7505 13.5985 21.7311 13.6961 21.6933 13.7871C21.6556 13.8781 21.6004 13.9609 21.5307 14.0306C21.461 14.1002 21.3783 14.1555 21.2872 14.1932C21.1962 14.2309 21.0986 14.2503 21.0001 14.2503C20.9015 14.2503 20.8039 14.2309 20.7129 14.1932C20.6218 14.1555 20.5391 14.1002 20.4694 14.0306L19.8751 13.4352L14.9063 18.404C14.5581 18.7522 14.1447 19.0285 13.6897 19.2169C13.2347 19.4054 12.7471 19.5024 12.2546 19.5024C11.7621 19.5024 11.2745 19.4054 10.8195 19.2169C10.3645 19.0285 9.95109 18.7522 9.60286 18.404L8.13286 16.9284L3.53068 21.5306C3.46099 21.6002 3.37827 21.6555 3.28722 21.6932C3.19618 21.7309 3.0986 21.7503 3.00005 21.7503C2.9015 21.7503 2.80392 21.7309 2.71288 21.6932C2.62183 21.6555 2.53911 21.6002 2.46943 21.5306C2.39974 21.4609 2.34447 21.3781 2.30676 21.2871C2.26904 21.1961 2.24963 21.0985 2.24963 20.9999C2.24963 20.9014 2.26904 20.8038 2.30676 20.7128C2.34447 20.6217 2.39974 20.539 2.46943 20.4693L7.07161 15.8671L5.5988 14.3943C5.25056 14.0461 4.97432 13.6327 4.78585 13.1777C4.59739 12.7227 4.50038 12.2351 4.50038 11.7426C4.50038 11.2501 4.59739 10.7625 4.78585 10.3075C4.97432 9.85249 5.25056 9.43909 5.5988 9.09087L10.5676 4.12212L9.97224 3.52774C9.83151 3.38701 9.75245 3.19614 9.75245 2.99712C9.75245 2.79809 9.83151 2.60722 9.97224 2.46649C10.113 2.32576 10.3038 2.2467 10.5029 2.2467C10.7019 2.2467 10.8928 2.32576 11.0335 2.46649L13.5001 4.93962L16.7194 1.7193C16.8602 1.57857 17.051 1.49951 17.2501 1.49951C17.4491 1.49951 17.6399 1.57857 17.7807 1.7193C17.9214 1.86003 18.0005 2.05091 18.0005 2.24993C18.0005 2.44895 17.9214 2.63982 17.7807 2.78055L14.5604 5.99993L18.0001 9.43962L21.2194 6.2193C21.3602 6.07857 21.551 5.99951 21.7501 5.99951C21.9491 5.99951 22.1399 6.07857 22.2807 6.2193C22.4214 6.36003 22.5005 6.55091 22.5005 6.74993C22.5005 6.94895 22.4214 7.13982 22.2807 7.28055Z" fill="#00BC72"/>
</svg>
