<svg width="24" height="24" viewBox="0 0 24 24" fill="none" xmlns="http://www.w3.org/2000/svg">
<path d="M21 6.75H19.5V6C19.5 5.40326 19.2629 4.83097 18.841 4.40901C18.419 3.98705 17.8467 3.75 17.25 3.75H3.75C3.15326 3.75 2.58097 3.98705 2.15901 4.40901C1.73705 4.83097 1.5 5.40326 1.5 6V15C1.5 15.5967 1.73705 16.169 2.15901 16.591C2.58097 17.0129 3.15326 17.25 3.75 17.25H14.25V18C14.25 18.5967 14.4871 19.169 14.909 19.591C15.331 20.0129 15.9033 20.25 16.5 20.25H21C21.5967 20.25 22.169 20.0129 22.591 19.591C23.0129 19.169 23.25 18.5967 23.25 18V9C23.25 8.40326 23.0129 7.83097 22.591 7.40901C22.169 6.98705 21.5967 6.75 21 6.75ZM21.75 18C21.75 18.1989 21.671 18.3897 21.5303 18.5303C21.3897 18.671 21.1989 18.75 21 18.75H16.5C16.3011 18.75 16.1103 18.671 15.9697 18.5303C15.829 18.3897 15.75 18.1989 15.75 18V9C15.75 8.80109 15.829 8.61032 15.9697 8.46967C16.1103 8.32902 16.3011 8.25 16.5 8.25H21C21.1989 8.25 21.3897 8.32902 21.5303 8.46967C21.671 8.61032 21.75 8.80109 21.75 9V18ZM12.75 19.5C12.75 19.6989 12.671 19.8897 12.5303 20.0303C12.3897 20.171 12.1989 20.25 12 20.25H8.25C8.05109 20.25 7.86032 20.171 7.71967 20.0303C7.57902 19.8897 7.5 19.6989 7.5 19.5C7.5 19.3011 7.57902 19.1103 7.71967 18.9697C7.86032 18.829 8.05109 18.75 8.25 18.75H12C12.1989 18.75 12.3897 18.829 12.5303 18.9697C12.671 19.1103 12.75 19.3011 12.75 19.5ZM20.25 10.5C20.25 10.6989 20.171 10.8897 20.0303 11.0303C19.8897 11.171 19.6989 11.25 19.5 11.25H18C17.8011 11.25 17.6103 11.171 17.4697 11.0303C17.329 10.8897 17.25 10.6989 17.25 10.5C17.25 10.3011 17.329 10.1103 17.4697 9.96967C17.6103 9.82902 17.8011 9.75 18 9.75H19.5C19.6989 9.75 19.8897 9.82902 20.0303 9.96967C20.171 10.1103 20.25 10.3011 20.25 10.5Z" fill="#00BC72"/>
</svg>
