<svg width="24" height="24" viewBox="0 0 24 24" fill="none" xmlns="http://www.w3.org/2000/svg">
<path d="M14.25 21.0002C14.25 21.1991 14.171 21.3899 14.0303 21.5305C13.8897 21.6712 13.6989 21.7502 13.5 21.7502H10.5C10.3011 21.7502 10.1103 21.6712 9.96968 21.5305C9.82902 21.3899 9.75001 21.1991 9.75001 21.0002C9.75001 20.8013 9.82902 20.6105 9.96968 20.4699C10.1103 20.3292 10.3011 20.2502 10.5 20.2502H13.5C13.6989 20.2502 13.8897 20.3292 14.0303 20.4699C14.171 20.6105 14.25 20.8013 14.25 21.0002ZM20.9644 14.6093L19.8056 19.8246C19.7507 20.0722 19.6338 20.3019 19.4659 20.4921C19.298 20.6823 19.0847 20.8268 18.8457 20.9121C18.6068 20.9975 18.3502 21.0208 18.0998 20.98C17.8494 20.9391 17.6135 20.8354 17.4141 20.6786L14.8603 18.7502H9.14157L6.58594 20.6786C6.38652 20.8354 6.15059 20.9391 5.90021 20.98C5.64983 21.0208 5.39318 20.9975 5.15427 20.9121C4.91536 20.8268 4.70199 20.6823 4.53411 20.4921C4.36624 20.3019 4.24935 20.0722 4.19438 19.8246L3.03563 14.6093C2.98648 14.3854 2.98896 14.1534 3.04289 13.9307C3.09682 13.708 3.20078 13.5005 3.34688 13.3239L6.02438 10.1121C6.11425 8.9317 6.38523 7.77219 6.82782 6.67426C8.03719 3.64238 10.2028 1.74019 11.0813 1.06332C11.3442 0.859584 11.6674 0.749023 12 0.749023C12.3326 0.749023 12.6558 0.859584 12.9188 1.06332C13.7944 1.74019 15.9628 3.64238 17.1722 6.67426C17.6148 7.77219 17.8858 8.9317 17.9756 10.1121L20.6531 13.3239C20.7992 13.5005 20.9032 13.708 20.9571 13.9307C21.0111 14.1534 21.0135 14.3854 20.9644 14.6093ZM7.91157 17.7968C6.90469 15.9636 6.29344 14.1614 6.07782 12.3902L4.50001 14.2839L5.65876 19.5002L5.67563 19.488L7.91157 17.7968ZM13.125 9.37519C13.125 9.15269 13.059 8.93518 12.9354 8.75018C12.8118 8.56517 12.6361 8.42098 12.4305 8.33583C12.225 8.25068 11.9988 8.2284 11.7805 8.27181C11.5623 8.31522 11.3618 8.42236 11.2045 8.5797C11.0472 8.73703 10.94 8.93749 10.8966 9.15572C10.8532 9.37394 10.8755 9.60015 10.9606 9.80571C11.0458 10.0113 11.19 10.187 11.375 10.3106C11.56 10.4342 11.7775 10.5002 12 10.5002C12.2984 10.5002 12.5845 10.3817 12.7955 10.1707C13.0065 9.95971 13.125 9.67356 13.125 9.37519ZM19.5 14.2839L17.9222 12.3902C17.7084 14.1577 17.0972 15.9605 16.0884 17.7986L18.3244 19.4861L18.3413 19.4983L19.5 14.2839Z" fill="#00BC72"/>
</svg>
