<svg width="24" height="24" viewBox="0 0 24 24" fill="none" xmlns="http://www.w3.org/2000/svg">
<path d="M20.0484 11.7617L9.54838 23.0117C9.43711 23.1305 9.29023 23.2098 9.12992 23.2377C8.9696 23.2657 8.80455 23.2407 8.65966 23.1667C8.51476 23.0926 8.3979 22.9734 8.3267 22.827C8.2555 22.6807 8.23382 22.5152 8.26494 22.3555L9.63932 15.4808L4.23651 13.452C4.12047 13.4086 4.017 13.3372 3.93533 13.244C3.85366 13.1508 3.79633 13.0389 3.76847 12.9182C3.74062 12.7975 3.7431 12.6718 3.77569 12.5522C3.80828 12.4327 3.86998 12.3231 3.95526 12.2333L14.4553 0.983274C14.5665 0.864526 14.7134 0.785191 14.8737 0.75724C15.034 0.729289 15.1991 0.75424 15.344 0.828326C15.4889 0.902412 15.6057 1.02161 15.6769 1.16794C15.7481 1.31428 15.7698 1.47979 15.7387 1.63952L14.3606 8.52171L19.7634 10.5476C19.8786 10.5913 19.9812 10.6627 20.0622 10.7555C20.1433 10.8483 20.2002 10.9596 20.228 11.0796C20.2558 11.1996 20.2536 11.3246 20.2216 11.4436C20.1897 11.5626 20.1289 11.6718 20.0446 11.7617H20.0484Z" fill="#00BC72"/>
</svg>
