<svg width="19" height="19" viewBox="0 0 19 19" fill="none" xmlns="http://www.w3.org/2000/svg">
<path d="M6.35 1.56836H12.65C15.05 1.56836 17 3.51836 17 5.91836V12.2184C17 13.3721 16.5417 14.4785 15.7259 15.2943C14.9101 16.1101 13.8037 16.5684 12.65 16.5684H6.35C3.95 16.5684 2 14.6184 2 12.2184V5.91836C2 4.76467 2.4583 3.65823 3.27409 2.84244C4.08987 2.02666 5.19631 1.56836 6.35 1.56836ZM6.2 3.06836C5.48392 3.06836 4.79716 3.35282 4.29081 3.85917C3.78446 4.36552 3.5 5.05227 3.5 5.76836V12.3684C3.5 13.8609 4.7075 15.0684 6.2 15.0684H12.8C13.5161 15.0684 14.2028 14.7839 14.7092 14.2775C15.2155 13.7712 15.5 13.0844 15.5 12.3684V5.76836C15.5 4.27586 14.2925 3.06836 12.8 3.06836H6.2ZM13.4375 4.19336C13.6861 4.19336 13.9246 4.29213 14.1004 4.46795C14.2762 4.64376 14.375 4.88222 14.375 5.13086C14.375 5.3795 14.2762 5.61796 14.1004 5.79377C13.9246 5.96959 13.6861 6.06836 13.4375 6.06836C13.1889 6.06836 12.9504 5.96959 12.7746 5.79377C12.5988 5.61796 12.5 5.3795 12.5 5.13086C12.5 4.88222 12.5988 4.64376 12.7746 4.46795C12.9504 4.29213 13.1889 4.19336 13.4375 4.19336ZM9.5 5.31836C10.4946 5.31836 11.4484 5.71345 12.1517 6.41671C12.8549 7.11997 13.25 8.0738 13.25 9.06836C13.25 10.0629 12.8549 11.0167 12.1517 11.72C11.4484 12.4233 10.4946 12.8184 9.5 12.8184C8.50544 12.8184 7.55161 12.4233 6.84835 11.72C6.14509 11.0167 5.75 10.0629 5.75 9.06836C5.75 8.0738 6.14509 7.11997 6.84835 6.41671C7.55161 5.71345 8.50544 5.31836 9.5 5.31836ZM9.5 6.81836C8.90326 6.81836 8.33097 7.05541 7.90901 7.47737C7.48705 7.89933 7.25 8.47162 7.25 9.06836C7.25 9.6651 7.48705 10.2374 7.90901 10.6593C8.33097 11.0813 8.90326 11.3184 9.5 11.3184C10.0967 11.3184 10.669 11.0813 11.091 10.6593C11.5129 10.2374 11.75 9.6651 11.75 9.06836C11.75 8.47162 11.5129 7.89933 11.091 7.47737C10.669 7.05541 10.0967 6.81836 9.5 6.81836Z" fill="white"/>
</svg>
