<svg width="19" height="19" viewBox="0 0 19 19" fill="none" xmlns="http://www.w3.org/2000/svg">
<path d="M14.75 2.31836C15.1478 2.31836 15.5294 2.47639 15.8107 2.7577C16.092 3.039 16.25 3.42053 16.25 3.81836V14.3184C16.25 14.7162 16.092 15.0977 15.8107 15.379C15.5294 15.6603 15.1478 15.8184 14.75 15.8184H4.25C3.85218 15.8184 3.47064 15.6603 3.18934 15.379C2.90804 15.0977 2.75 14.7162 2.75 14.3184V3.81836C2.75 3.42053 2.90804 3.039 3.18934 2.7577C3.47064 2.47639 3.85218 2.31836 4.25 2.31836H14.75ZM14.375 13.9434V9.96836C14.375 9.3199 14.1174 8.69801 13.6589 8.23948C13.2003 7.78096 12.5785 7.52336 11.93 7.52336C11.2925 7.52336 10.55 7.91336 10.19 8.49836V7.66586H8.0975V13.9434H10.19V10.2459C10.19 9.66836 10.655 9.19586 11.2325 9.19586C11.511 9.19586 11.778 9.30648 11.975 9.5034C12.1719 9.70031 12.2825 9.96738 12.2825 10.2459V13.9434H14.375ZM5.66 6.48836C5.99417 6.48836 6.31466 6.35561 6.55095 6.11931C6.78725 5.88302 6.92 5.56253 6.92 5.22836C6.92 4.53086 6.3575 3.96086 5.66 3.96086C5.32384 3.96086 5.00144 4.0944 4.76374 4.3321C4.52604 4.5698 4.3925 4.8922 4.3925 5.22836C4.3925 5.92586 4.9625 6.48836 5.66 6.48836ZM6.7025 13.9434V7.66586H4.625V13.9434H6.7025Z" fill="white"/>
</svg>
