<svg width="19" height="19" viewBox="0 0 19 19" fill="none" xmlns="http://www.w3.org/2000/svg">
<path d="M4.25 2.31836H14.75C15.1478 2.31836 15.5294 2.47639 15.8107 2.7577C16.092 3.039 16.25 3.42053 16.25 3.81836V14.3184C16.25 14.7162 16.092 15.0977 15.8107 15.379C15.5294 15.6603 15.1478 15.8184 14.75 15.8184H4.25C3.85218 15.8184 3.47064 15.6603 3.18934 15.379C2.90804 15.0977 2.75 14.7162 2.75 14.3184V3.81836C2.75 3.42053 2.90804 3.039 3.18934 2.7577C3.47064 2.47639 3.85218 2.31836 4.25 2.31836ZM14 3.81836H12.125C11.4288 3.81836 10.7611 4.09492 10.2688 4.5872C9.77656 5.07949 9.5 5.74717 9.5 6.44336V8.31836H8V10.5684H9.5V15.8184H11.75V10.5684H14V8.31836H11.75V6.81836C11.75 6.61945 11.829 6.42868 11.9697 6.28803C12.1103 6.14738 12.3011 6.06836 12.5 6.06836H14V3.81836Z" fill="white"/>
</svg>
