<svg width="526" height="710" viewBox="0 0 526 710" fill="none" xmlns="http://www.w3.org/2000/svg">
<g opacity="0.5">
<circle cx="235.483" cy="592.28" r="117.132" transform="rotate(90 235.483 592.28)" fill="white" fill-opacity="0.1"/>
<circle cx="473.424" cy="354.831" r="117.784" transform="rotate(90 473.424 354.831)" fill="white" fill-opacity="0.1"/>
<path opacity="0.1" d="M118.35 119.263C118.35 134.73 121.397 150.047 127.316 164.337C133.235 178.627 141.911 191.611 152.849 202.549C163.786 213.486 176.77 222.162 191.06 228.081C205.351 234 220.667 237.047 236.135 237.047C251.602 237.047 266.918 234 281.209 228.081C295.499 222.162 308.483 213.486 319.421 202.549C330.358 191.611 339.034 178.627 344.953 164.337C350.872 150.046 353.919 134.73 353.919 119.263L236.135 119.263L118.35 119.263Z" fill="white"/>
<path opacity="0.1" d="M8.39233e-05 472.822C15.5281 472.822 30.9041 469.764 45.2501 463.821C59.5961 457.879 72.6312 449.169 83.6112 438.189C94.5911 427.209 103.301 414.174 109.243 399.828C115.186 385.482 118.244 370.106 118.244 354.578C118.244 339.05 115.186 323.674 109.243 309.328C103.301 294.982 94.5911 281.947 83.6111 270.967C72.6312 259.987 59.596 251.278 45.25 245.335C30.904 239.393 15.528 236.334 2.51019e-05 236.334L7.35861e-05 354.578L8.39233e-05 472.822Z" fill="white"/>
<rect opacity="0.2" x="354.765" y="236.409" width="236.409" height="236.412" transform="rotate(90 354.765 236.409)" fill="white"/>
<path d="M591.174 472.819L465.228 595.318L354.765 709.227L354.765 472.819L591.174 472.819Z" fill="white" fill-opacity="0.15"/>
<path d="M354.765 236.409L480.71 113.91L591.173 4.85955e-05L591.173 236.409L354.765 236.409Z" fill="white" fill-opacity="0.15"/>
</g>
</svg>
